<?xml version="1.0" encoding="utf-8"?>
<svg width="512" height="512" viewBox="0 0 512 512" xmlns="http://www.w3.org/2000/svg"
     xmlns:xlink="http://www.w3.org/1999/xlink">
    <defs>
    <svg viewBox="0 0 24 24" width="24" height="24" pointer-events="none" display="block" id="info">
        <path d="M0 0h24v24H0z" fill="none"/>
        <path d="M11 17h2v-6h-2v6zm1-15C6.48 2 2 6.48 2 12s4.48 10 10 10 10-4.48 10-10S17.52 2 12 2zm0 18c-4.41 0-8-3.59-8-8s3.59-8 8-8 8 3.59 8 8-3.59 8-8 8zM11 9h2V7h-2v2z"/>
    </svg>
    <svg width="24" height="24" viewBox="0 0 24 24" pointer-events="none" display="block" id="arrow-back">
        <path d="M0 0h24v24H0z" fill="none"/>
        <path d="M20 11H7.83l5.59-5.59L12 4l-8 8 8 8 1.41-1.41L7.83 13H20v-2z"/>
    </svg>
    <svg width="24" height="24" viewBox="0 0 24 24" pointer-events="none" display="block" id="reply">
        <path d="M10 9V5l-7 7 7 7v-4.1c5 0 8.5 1.6 11 5.1-1-5-4-10-11-11z"/>
        <path d="M0 0h24v24H0z" fill="none"/>
    </svg>
    </defs>
</svg>
